# xmcd
#
# Track frame offsets: 
#        150
#        12160
#        26750
#        39912
#        53467
#        65032
#        79715
#        92010
#        103632
#        118405
#        135645
#        148310
#
# Disc length: 2169 seconds
#
# Revision: 7
# Processed by: cddbd v1.5.2PL0 Copyright (c) Steve Scherf et al.
# Submitted via: ExactAudioCopyFreeDBPlugin 1.0
#
DISCID=a108770c
DTITLE=The Louvin Brothers - Tragic Songs of Life
DYEAR=1956
DGENRE=Country
TTITLE0=Kentucky
TTITLE1=I'll Be All Smiles Tonight
TTITLE2=Let Her Go, God Bless Her
TTITLE3=What Is Home Without Love
TTITLE4=A Tiny Broken Heart
TTITLE5=In the Pines
TTITLE6=Alabama
TTITLE7=Katie Dear
TTITLE8=My Brother's Will
TTITLE9=Knoxville Girl
TTITLE10=Take the News to Mother
TTITLE11=Mary of the Wild Moor
EXTD=Year: 2003\n\nKing Records, Inc., Nash., TN\n\nManufactured by EM
EXTD=I Music Special Markets, 1750 Vine Street, Hollywood, California 
EXTD=90028\n\nTragic Songs Of Life (Original Album) - 1956 (Capitol Na
EXTD=shville) YEAR: 1956
EXTT0=
EXTT1=
EXTT2=
EXTT3=
EXTT4=
EXTT5=
EXTT6=
EXTT7=
EXTT8=
EXTT9=
EXTT10=
EXTT11=
PLAYORDER=
